
<svg width="59" height="44" viewBox="0 0 59 44" fill="none" xmlns="http://www.w3.org/2000/svg">
<path d="M47.7647 14.5451H44.0502L43.2976 23.1873H47.7643C50.4123 23.1873 51.6066 24.5592 52.8709 26.012C54.0692 27.3887 55.4273 28.9491 57.9972 28.9491H58.787L58.8573 28.1655C58.9442 27.1539 59 26.3021 59 25.7805C59.0001 19.5852 53.9599 14.5451 47.7647 14.5451Z" fill="#025162"/>
<path d="M45.1725 1.61173C45.1724 1.60009 45.1714 1.58868 45.1707 1.57704C45.1699 1.55964 45.1693 1.54213 45.1674 1.52507C45.166 1.51274 45.1638 1.50076 45.1618 1.48854C45.1593 1.4723 45.1572 1.45616 45.1539 1.44026C45.1512 1.42805 45.1475 1.41606 45.1444 1.40408C45.1405 1.38875 45.1369 1.37331 45.1321 1.35844C45.1281 1.34577 45.123 1.33355 45.1184 1.32111C45.1133 1.30739 45.1086 1.29357 45.1028 1.2802C45.0968 1.26614 45.0897 1.25277 45.0829 1.23918C45.0775 1.228 45.0724 1.21659 45.0664 1.20576C45.0574 1.18916 45.0472 1.17338 45.037 1.15747C45.0324 1.15021 45.0284 1.14284 45.0235 1.13581C45.0104 1.11634 44.996 1.09767 44.9812 1.07934C44.9788 1.07646 44.9769 1.07324 44.9743 1.07036C44.905 0.98635 44.8198 0.915711 44.723 0.862703C44.7217 0.862012 44.7207 0.861205 44.7196 0.860514C44.6995 0.849682 44.6789 0.840117 44.6579 0.830898C44.6527 0.828478 44.6478 0.825828 44.6426 0.823639C44.6255 0.816494 44.6078 0.810617 44.5901 0.80451C44.5805 0.801168 44.571 0.797249 44.5612 0.794253C44.5469 0.78999 44.5321 0.786763 44.5174 0.78296C44.5039 0.779619 44.4905 0.775701 44.4765 0.77305C44.4635 0.770515 44.45 0.769017 44.4366 0.766943C44.4211 0.764523 44.4058 0.761988 44.3899 0.760374C44.3876 0.760144 44.3855 0.759683 44.3832 0.759452C44.3688 0.758185 44.3546 0.758415 44.3404 0.757839C44.3297 0.757493 44.3192 0.756226 44.3085 0.756226H44.2968C44.2959 0.756226 44.295 0.756226 44.2941 0.756226H32.0351H26.6204H12.7922C12.7918 0.756226 12.7914 0.756226 12.791 0.756226C12.385 0.756226 12.0328 1.04189 11.9477 1.43807C11.9471 1.44095 11.9461 1.44383 11.9455 1.4466C11.9411 1.46826 11.9382 1.49027 11.9353 1.51228C11.9345 1.51931 11.933 1.526 11.9323 1.53302C11.9322 1.53441 11.9319 1.53567 11.9318 1.53706L9.36814 27.9953C9.36802 27.9961 9.36802 27.9968 9.36791 27.9976L9.3595 28.0849L9.36365 28.0871C9.36491 28.5633 9.75118 28.949 10.2278 28.949H42.0033C42.0038 28.949 42.0042 28.9491 42.0046 28.9491C42.0335 28.9491 42.0622 28.9474 42.0906 28.9446C42.0959 28.9442 42.1011 28.943 42.1064 28.9423C42.129 28.9397 42.1514 28.9365 42.1735 28.9321C42.1831 28.9301 42.1925 28.9275 42.2019 28.9252C42.2192 28.9211 42.2365 28.9171 42.2533 28.912C42.2648 28.9086 42.2758 28.9044 42.2869 28.9004C42.3015 28.8953 42.316 28.8904 42.33 28.8846C42.342 28.8796 42.3538 28.8741 42.3655 28.8686C42.3783 28.8627 42.3911 28.8568 42.4034 28.8504C42.4153 28.8442 42.4267 28.8375 42.4384 28.8308C42.4502 28.8238 42.462 28.8168 42.4735 28.8094C42.4847 28.8021 42.4953 28.7946 42.506 28.7869C42.5174 28.7788 42.5285 28.7705 42.5395 28.7619C42.5494 28.754 42.5592 28.7457 42.5689 28.7373C42.5799 28.7279 42.5906 28.7182 42.601 28.7082C42.6097 28.6998 42.6185 28.6911 42.627 28.6822C42.6374 28.6714 42.6474 28.6604 42.6573 28.6489C42.665 28.64 42.6726 28.631 42.68 28.6217C42.6896 28.6096 42.6987 28.5972 42.7077 28.5846C42.7145 28.5753 42.721 28.5659 42.7275 28.5562C42.7359 28.5432 42.744 28.5298 42.7517 28.5162C42.7576 28.5059 42.7636 28.4959 42.7689 28.4854C42.7761 28.4719 42.7823 28.458 42.7889 28.4441C42.794 28.4329 42.7992 28.4219 42.8038 28.4105C42.8094 28.3969 42.8141 28.383 42.8191 28.369C42.8234 28.3567 42.8279 28.3443 42.8317 28.3317C42.8355 28.3185 42.8386 28.3047 42.842 28.291C42.8454 28.2773 42.8491 28.2637 42.8517 28.2498C42.8544 28.2363 42.856 28.2223 42.858 28.2086C42.86 28.1943 42.8625 28.1803 42.8639 28.1658C42.8642 28.1637 42.8646 28.1617 42.8647 28.1597L45.1683 1.71083C45.1685 1.70853 45.1686 1.70634 45.1688 1.70403L45.1697 1.69527C45.1703 1.68767 45.17 1.68041 45.1705 1.67303C45.1716 1.65552 45.1731 1.63812 45.1731 1.62037C45.173 1.61749 45.1725 1.61461 45.1725 1.61173Z" fill="#E75313"/>
<path d="M47.7645 23.1873C48.0474 23.1873 48.3129 23.2038 48.5644 23.2336L49.3117 14.652C48.8057 14.5821 48.2896 14.545 47.7648 14.545H47.5859L46.8333 23.1871H47.7645V23.1873Z" fill="white"/>
<path d="M17.4001 22.0351H7.02942C6.552 22.0351 6.16516 21.6483 6.16516 21.1708C6.16516 20.6935 6.552 20.3066 7.02942 20.3066H17.4001C17.8775 20.3066 18.2644 20.6935 18.2644 21.1708C18.2644 21.6483 17.8775 22.0351 17.4001 22.0351Z" fill="#025162"/>
<path d="M8.18138 16.2737H3.95618C3.47876 16.2737 3.09192 15.8868 3.09192 15.4094C3.09192 14.9321 3.47876 14.5452 3.95618 14.5452H8.18138C8.6588 14.5452 9.04564 14.9321 9.04564 15.4094C9.04564 15.8868 8.6588 16.2737 8.18138 16.2737Z" fill="#025162"/>
<path d="M22.011 9.35981H0.864262C0.386843 9.35981 0 8.97297 0 8.49555C0 8.01825 0.386843 7.63129 0.864262 7.63129H22.011C22.4884 7.63129 22.8753 8.01825 22.8753 8.49555C22.8753 8.97297 22.4883 9.35981 22.011 9.35981Z" fill="#025162"/>
<path d="M58.8565 28.1757L58.7887 28.9296C58.8129 28.6711 58.8355 28.4192 58.8565 28.1768C58.8565 28.177 58.8563 28.1771 58.8563 28.1773C58.8565 28.1768 58.8565 28.1762 58.8565 28.1757Z" fill="white"/>
<path d="M57.9974 28.9491C55.4274 28.9491 54.0692 27.3887 52.871 26.012C51.6067 24.5594 50.4125 23.1873 47.7645 23.1873H43.2978L42.8646 28.1596C42.8645 28.1617 42.864 28.1637 42.8638 28.1657C42.8624 28.1803 42.86 28.1943 42.8579 28.2086C42.8558 28.2223 42.8543 28.2363 42.8516 28.2498C42.8489 28.2637 42.8452 28.2773 42.8419 28.291C42.8386 28.3046 42.8353 28.3183 42.8315 28.3317C42.8277 28.3442 42.8232 28.3567 42.819 28.369C42.814 28.383 42.8093 28.3969 42.8036 28.4105C42.799 28.4219 42.7938 28.4329 42.7888 28.444C42.7822 28.458 42.776 28.4719 42.7687 28.4854C42.7633 28.4959 42.7573 28.5059 42.7515 28.5162C42.7438 28.5297 42.7358 28.543 42.7274 28.5562C42.7209 28.5658 42.7143 28.5753 42.7075 28.5846C42.6985 28.5972 42.6894 28.6097 42.6799 28.6217C42.6725 28.631 42.6649 28.6399 42.6572 28.6489C42.6473 28.6603 42.6372 28.6714 42.6269 28.6822C42.6185 28.6911 42.6097 28.6996 42.6008 28.7082C42.5903 28.7182 42.5796 28.7279 42.5688 28.7373C42.5591 28.7457 42.5493 28.754 42.5394 28.7619C42.5283 28.7705 42.5173 28.7787 42.5059 28.7869C42.4952 28.7946 42.4844 28.8022 42.4734 28.8093C42.4618 28.8167 42.4501 28.8237 42.4382 28.8308C42.4266 28.8375 42.4152 28.8441 42.4033 28.8504C42.391 28.8569 42.3782 28.8627 42.3654 28.8686C42.3536 28.8741 42.342 28.8796 42.3299 28.8846C42.3158 28.8903 42.3013 28.8953 42.2868 28.9004C42.2756 28.9043 42.2647 28.9084 42.2532 28.912C42.2363 28.9171 42.219 28.9211 42.2018 28.9251C42.1923 28.9275 42.183 28.9301 42.1734 28.9321C42.1513 28.9364 42.1288 28.9396 42.1062 28.9423C42.1009 28.943 42.0957 28.9442 42.0904 28.9446C42.0621 28.9474 42.0334 28.9491 42.0045 28.9491C42.004 28.9491 42.0037 28.949 42.0032 28.949H10.2278C9.75116 28.949 9.36489 28.5632 9.36362 28.087L9.35948 28.0849L8.47493 37.2142C8.47482 37.2153 8.4747 37.2163 8.47459 37.2173L8.47424 37.2206C8.47309 37.2325 8.4732 37.2444 8.47251 37.2564C8.47171 37.2723 8.47009 37.2879 8.47009 37.304C8.47009 37.3048 8.47021 37.3055 8.47021 37.3061C8.47021 37.3283 8.47182 37.3502 8.47343 37.3721C8.47413 37.379 8.4739 37.3863 8.4747 37.3932C8.47701 37.4157 8.48081 37.4375 8.48484 37.4594C8.48599 37.4659 8.48657 37.4723 8.48784 37.4788C8.49118 37.4954 8.49591 37.5114 8.50028 37.5277C8.50328 37.5391 8.5057 37.5507 8.50916 37.5619C8.5102 37.565 8.51158 37.5681 8.5125 37.5712C8.55433 37.6997 8.62531 37.8152 8.71796 37.9095C8.71969 37.9113 8.72107 37.9131 8.7228 37.9148C8.73202 37.9241 8.74205 37.9323 8.75173 37.9412C8.8113 37.9959 8.8786 38.0422 8.95224 38.0784C8.96756 38.086 8.98266 38.0939 8.99833 38.1006C9.00305 38.1027 9.00812 38.104 9.01296 38.1059C9.03463 38.1146 9.05641 38.1228 9.07888 38.1299C9.08095 38.1305 9.08291 38.1308 9.08499 38.1315C9.11057 38.1391 9.13638 38.1459 9.16277 38.1512C9.16623 38.1519 9.1698 38.1521 9.17314 38.1528C9.19826 38.1575 9.2235 38.1615 9.2492 38.1641C9.24977 38.1642 9.25023 38.1642 9.25081 38.1643C9.27916 38.1671 9.30727 38.1685 9.33516 38.1685C9.33551 38.1685 9.33597 38.1684 9.33643 38.1684H12.6468H13.9895H52.3738H53.7375H56.9825C56.9831 38.1684 56.9837 38.1685 56.9843 38.1685C57.0131 38.1685 57.0415 38.1668 57.0696 38.164C57.0747 38.1635 57.0795 38.1625 57.0846 38.1619C57.1071 38.1593 57.1294 38.156 57.1513 38.1517C57.1607 38.1497 57.1699 38.1473 57.1792 38.1451C57.1962 38.1412 57.2132 38.1371 57.2299 38.1321C57.2412 38.1288 57.2521 38.1248 57.2632 38.121C57.2774 38.1162 57.2915 38.1111 57.3055 38.1054C57.3175 38.1007 57.3289 38.0955 57.3405 38.0902C57.3532 38.0844 57.3659 38.0785 57.3782 38.072C57.39 38.0662 57.4012 38.0599 57.4125 38.0534C57.4244 38.0466 57.4362 38.0394 57.4478 38.0319C57.4586 38.0249 57.4695 38.018 57.4798 38.0105C57.4916 38.0024 57.5028 37.9937 57.5142 37.9849C57.5236 37.9774 57.5332 37.97 57.5424 37.9622C57.5543 37.9522 57.5655 37.9416 57.5767 37.931C57.5846 37.9236 57.5928 37.9161 57.6004 37.9083C57.6125 37.8962 57.6238 37.8832 57.6352 37.8701C57.6413 37.8631 57.6476 37.8563 57.6535 37.8491C57.6661 37.8337 57.6777 37.8177 57.6891 37.8013C57.693 37.7957 57.6974 37.7904 57.7012 37.7846C57.7153 37.7637 57.7285 37.7419 57.7407 37.7196C57.7416 37.7183 57.7426 37.717 57.7433 37.7155C57.7563 37.6915 57.7683 37.667 57.7789 37.6415C57.7819 37.6343 57.7842 37.6269 57.787 37.6196C57.7941 37.6018 57.801 37.5839 57.8069 37.5653C57.8107 37.5534 57.8134 37.5411 57.8168 37.529C57.8206 37.5146 57.8246 37.5004 57.8278 37.4856C57.8307 37.4726 57.8326 37.4593 57.8349 37.446C57.8368 37.4342 57.8394 37.4229 57.8409 37.411C57.875 37.1383 58.4618 32.4311 58.7869 28.949L57.9974 28.9491Z" fill="white"/>
<path d="M57.9974 28.9491C56.9533 28.9491 56.1093 28.6917 55.3947 28.2936C55.0695 31.7755 54.4178 37.1384 54.3838 37.4112C54.3823 37.4231 54.3797 37.4344 54.3778 37.4461C54.3755 37.4594 54.3737 37.4726 54.3707 37.4857C54.3676 37.5005 54.3635 37.5148 54.3597 37.5292C54.3563 37.5413 54.3536 37.5536 54.3498 37.5655C54.3439 37.584 54.337 37.6018 54.3299 37.6198C54.3271 37.627 54.3248 37.6345 54.3218 37.6417C54.311 37.6671 54.2992 37.6917 54.286 37.7156C54.2854 37.7171 54.2844 37.7184 54.2836 37.7198C54.2715 37.742 54.2582 37.7639 54.2441 37.7848C54.2403 37.7905 54.2359 37.7958 54.232 37.8015C54.2205 37.8179 54.209 37.8339 54.1963 37.8492C54.1904 37.8565 54.1841 37.8633 54.178 37.8703C54.1665 37.8833 54.1553 37.8963 54.1432 37.9084C54.1355 37.9163 54.1274 37.9238 54.1195 37.9311C54.1082 37.9417 54.0971 37.9523 54.0852 37.9624C54.076 37.9702 54.0664 37.9776 54.057 37.9851C54.0455 37.9938 54.0344 38.0025 54.0226 38.0106C54.0121 38.018 54.0013 38.025 53.9906 38.0321C53.9789 38.0395 53.9673 38.0467 53.9553 38.0535C53.944 38.0601 53.9327 38.0663 53.921 38.0722C53.9085 38.0787 53.896 38.0845 53.8833 38.0904C53.8717 38.0957 53.8602 38.1009 53.8483 38.1056C53.8343 38.1112 53.8201 38.1163 53.806 38.1212C53.7949 38.125 53.784 38.1289 53.7727 38.1322C53.756 38.1373 53.739 38.1413 53.7221 38.1452C53.7128 38.1474 53.7036 38.1498 53.6942 38.1518C53.6723 38.1562 53.6499 38.1594 53.6275 38.1621C53.6224 38.1626 53.6176 38.1637 53.6125 38.1641C53.5851 38.1668 53.5575 38.1684 53.5293 38.1685H53.7378H56.9828C56.9833 38.1685 56.984 38.1686 56.9846 38.1686C57.0134 38.1686 57.0418 38.1669 57.0699 38.1641C57.075 38.1637 57.0798 38.1626 57.0849 38.1621C57.1073 38.1594 57.1297 38.1562 57.1516 38.1518C57.161 38.1498 57.1701 38.1474 57.1795 38.1452C57.1965 38.1413 57.2135 38.1373 57.2302 38.1322C57.2415 38.129 57.2524 38.125 57.2635 38.1212C57.2777 38.1163 57.2918 38.1112 57.3058 38.1056C57.3178 38.1009 57.3292 38.0957 57.3408 38.0904C57.3535 38.0845 57.3662 38.0786 57.3785 38.0722C57.3902 38.0663 57.4015 38.0601 57.4128 38.0535C57.4247 38.0467 57.4364 38.0396 57.4481 38.0321C57.4589 38.025 57.4698 38.0181 57.4801 38.0106C57.4919 38.0026 57.5031 37.9938 57.5145 37.9851C57.5239 37.9776 57.5335 37.9702 57.5427 37.9624C57.5546 37.9523 57.5657 37.9417 57.577 37.9311C57.5849 37.9238 57.5931 37.9163 57.6007 37.9084C57.6128 37.8963 57.6241 37.8833 57.6355 37.8703C57.6416 37.8633 57.6479 37.8565 57.6538 37.8492C57.6663 37.8339 57.678 37.8179 57.6894 37.8015C57.6933 37.7958 57.6977 37.7905 57.7015 37.7848C57.7155 37.7638 57.7288 37.742 57.741 37.7198C57.7419 37.7184 57.7429 37.7171 57.7435 37.7156C57.7566 37.6917 57.7686 37.6671 57.7792 37.6417C57.7822 37.6344 57.7845 37.627 57.7873 37.6198C57.7944 37.6019 57.8013 37.584 57.8072 37.5655C57.811 37.5535 57.8137 37.5413 57.8171 37.5292C57.8209 37.5148 57.8249 37.5005 57.8281 37.4857C57.831 37.4727 57.8329 37.4595 57.8352 37.4461C57.8371 37.4344 57.8397 37.4231 57.8412 37.4112C57.8753 37.1384 58.462 32.4312 58.7872 28.9491H57.9974Z" fill="white"/>
<path d="M19.7061 43.0654C16.5291 43.0654 13.9445 40.4806 13.9445 37.3036C13.9445 34.1267 16.5291 31.5419 19.7061 31.5419C22.8832 31.5419 25.4679 34.1267 25.4679 37.3036C25.4679 40.4806 22.8832 43.0654 19.7061 43.0654Z" fill="#E75313"/>
<path d="M19.7058 39.6084C18.435 39.6084 17.4011 38.5745 17.4011 37.3037C17.4011 36.0328 18.435 34.999 19.7058 34.999C20.9766 34.999 22.0105 36.0328 22.0105 37.3037C22.0105 38.5744 20.9766 39.6084 19.7058 39.6084Z" fill="white"/>
<path d="M46.6122 43.0654C43.4352 43.0654 40.8506 40.4806 40.8506 37.3036C40.8506 34.1267 43.4352 31.5419 46.6122 31.5419C49.7894 31.5419 52.3741 34.1267 52.3741 37.3036C52.3741 40.4806 49.7894 43.0654 46.6122 43.0654Z" fill="#E75313"/>
<path d="M46.6124 39.6084C45.3416 39.6084 44.3077 38.5745 44.3077 37.3037C44.3077 36.0328 45.3416 34.999 46.6124 34.999C47.8832 34.999 48.9171 36.0328 48.9171 37.3037C48.9171 38.5744 47.8832 39.6084 46.6124 39.6084Z" fill="white"/>
</svg>
