
<svg width="49" height="65" viewBox="0 0 49 65" fill="none" xmlns="http://www.w3.org/2000/svg">
<path d="M29.1875 42.8854L21.3 45.4341L27.0767 63.3109C27.3634 64.1982 28.487 64.4684 29.1457 63.8084L33.8334 59.1128C34.1169 58.8288 34.5199 58.6986 34.916 58.763L41.465 59.8276C42.3854 59.9772 43.1384 59.1007 42.8517 58.2134L37.075 40.3367L29.1875 42.8854Z" fill="#E75313"/>
<path d="M21.3457 42.8637L29.2332 45.4125L23.4566 63.2892C23.1699 64.1765 22.0463 64.4467 21.3876 63.7867L16.6999 59.0912C16.4164 58.8072 16.0134 58.677 15.6173 58.7413L9.06827 59.8059C8.14789 59.9556 7.39489 59.079 7.68161 58.1917L13.4582 40.315L21.3457 42.8637Z" fill="#E75313"/>
<path d="M47.5 25.1979C47.5 37.9005 37.2026 48.1979 24.5 48.1979C11.7975 48.1979 1.5 37.9005 1.5 25.1979C1.5 12.4954 11.7975 2.19794 24.5 2.19794C37.2026 2.19794 47.5 12.4954 47.5 25.1979Z" fill="white" stroke="#E75313" stroke-width="3"/>
<path d="M10.1589 19.5225H8.27321C7.66371 19.5225 7.16959 20.0166 7.16959 20.6261C7.16959 21.2356 7.66371 21.7297 8.27321 21.7297H9.05531V29.449C9.05531 30.0585 9.54943 30.5526 10.1589 30.5526C10.7684 30.5526 11.2625 30.0585 11.2625 29.449V20.6261C11.2625 20.0164 10.7684 19.5225 10.1589 19.5225Z" fill="#025162"/>
<path d="M38.0306 18.9067C37.4689 18.6709 36.8217 18.9351 36.5859 19.4972L32.2939 29.7236C32.0581 30.2856 32.3225 30.9325 32.8846 31.1683C33.0241 31.2269 33.1689 31.2546 33.3112 31.2546C33.7423 31.2546 34.152 31.0003 34.3293 30.5777L38.6212 20.3512C38.857 19.7894 38.5925 19.1425 38.0306 18.9067V18.9067Z" fill="#025162"/>
<path d="M32.6139 22.443C33.3855 22.1232 33.7518 21.2383 33.4319 20.4667C33.1121 19.6951 32.2272 19.3288 31.4556 19.6486C30.684 19.9685 30.3177 20.8533 30.6375 21.625C30.9574 22.3966 31.8422 22.7629 32.6139 22.443Z" fill="#025162"/>
<path d="M38.8939 30.5301C39.729 30.5301 40.406 29.8531 40.406 29.018C40.406 28.1829 39.729 27.5059 38.8939 27.5059C38.0587 27.5059 37.3817 28.1829 37.3817 29.018C37.3817 29.8531 38.0587 30.5301 38.8939 30.5301Z" fill="#025162"/>
<path d="M16.3184 19.3424C14.303 19.3424 12.6634 20.9821 12.6634 22.9975V27.0778C12.6634 29.0931 14.303 30.7328 16.3184 30.7328C18.3338 30.7328 19.9733 29.0931 19.9733 27.0778V22.9975C19.9735 20.9819 18.3338 19.3424 16.3184 19.3424V19.3424ZM17.7662 27.0778C17.7662 27.876 17.1167 28.5256 16.3186 28.5256C15.5203 28.5256 14.8708 27.876 14.8708 27.0778V22.9975C14.8708 22.1992 15.5203 21.5496 16.3186 21.5496C17.1168 21.5496 17.7662 22.1992 17.7662 22.9975V27.0778Z" fill="#025162"/>
<path d="M25.1053 19.3424C23.0899 19.3424 21.4502 20.9821 21.4502 22.9975V27.0778C21.4502 29.0931 23.0899 30.7328 25.1053 30.7328C27.1205 30.7328 28.7602 29.0931 28.7602 27.0778V22.9975C28.7602 20.9819 27.1205 19.3424 25.1053 19.3424V19.3424ZM26.5529 27.0778C26.5529 27.876 25.9036 28.5256 25.1053 28.5256C24.307 28.5256 23.6575 27.876 23.6575 27.0778V22.9975C23.6575 22.1992 24.307 21.5496 25.1053 21.5496C25.9036 21.5496 26.5529 22.1992 26.5529 22.9975V27.0778Z" fill="#025162"/>
</svg>
