
<svg width="58" height="57" viewBox="0 0 58 57" fill="none" xmlns="http://www.w3.org/2000/svg">
<path d="M57.2853 25.1938C57.2365 24.7298 56.9978 24.3067 56.6261 24.0251L52.0876 20.5873L53.7389 15.1387C53.8742 14.6922 53.8187 14.2097 53.5854 13.8057C53.3522 13.4018 52.9621 13.1124 52.5078 13.0063L46.9633 11.7117L46.2555 6.0625C46.1975 5.59967 45.9505 5.18137 45.5731 4.90721C45.1959 4.63294 44.7219 4.52708 44.2635 4.61514L38.672 5.68773L35.7272 0.814691C35.4859 0.415533 35.0902 0.133873 34.6338 0.0369649C34.1775 -0.060167 33.7015 0.0360697 33.3188 0.302735L28.6471 3.55676L23.9753 0.302847C23.5926 0.0364054 23.1165 -0.0597194 22.6601 0.0370768C22.2038 0.133985 21.8082 0.415533 21.5669 0.814915L18.6225 5.68785L13.0311 4.61537C12.5729 4.52764 12.0989 4.63316 11.7215 4.90743C11.3441 5.18171 11.0969 5.59978 11.0391 6.06272L10.3313 11.7119L4.78671 13.0065C4.33238 13.1126 3.9424 13.402 3.70908 13.806C3.47576 14.21 3.42026 14.6925 3.55555 15.1388L5.20657 20.5875L0.668448 24.0252C0.296594 24.3068 0.0580169 24.7299 0.00922717 25.1938C-0.0394507 25.6577 0.105911 26.1211 0.411183 26.474L4.13543 30.7801L1.38776 35.7665C1.16272 36.1751 1.11662 36.6586 1.26086 37.1023C1.40499 37.5458 1.72638 37.91 2.1487 38.1082L7.30251 40.5271L6.82032 46.2001C6.78082 46.665 6.93547 47.1254 7.24768 47.4721C7.55978 47.8188 8.00157 48.0207 8.46787 48.0301L14.1604 48.1435L16.027 53.522C16.18 53.9627 16.5084 54.3206 16.9347 54.5103C17.3608 54.7002 17.8466 54.7048 18.2764 54.5237L23.5231 52.3122L27.4162 56.4664C27.7352 56.8069 28.1809 57 28.6474 57C29.1138 57 29.5595 56.8069 29.8785 56.4664L33.7716 52.3122L39.0179 54.5237C39.4478 54.7046 39.9333 54.6998 40.3596 54.5103C40.7858 54.3206 41.1145 53.9629 41.2673 53.5222L43.1343 48.1435L48.8265 48.0301C49.293 48.0208 49.7346 47.8188 50.0468 47.4721C50.3589 47.1254 50.5137 46.6651 50.4742 46.2001L49.992 40.5271L55.146 38.1082C55.5684 37.91 55.8897 37.5458 56.0341 37.1022C56.1782 36.6587 56.1322 36.1751 55.9071 35.7664L53.1591 30.7801L56.8835 26.474C57.1884 26.1211 57.3338 25.6576 57.2853 25.1938Z" fill="#E75313"/>
<path d="M28.5413 10.3068C18.4863 10.3068 10.3061 18.4871 10.3061 28.542C10.3061 38.5969 18.4864 46.7771 28.5413 46.7771C38.5962 46.7771 46.7764 38.5967 46.7764 28.5419C46.7764 18.487 38.5961 10.3068 28.5413 10.3068Z" fill="white"/>
<path d="M26.4521 34.2684C25.9632 34.2684 25.4743 34.0818 25.1015 33.709L21.0096 29.6172C20.2638 28.8714 20.2638 27.662 21.0096 26.9159C21.7554 26.1702 22.9648 26.1699 23.7108 26.9159L26.4521 29.6571L33.285 22.8243C34.0308 22.0785 35.2402 22.0782 35.9862 22.8243C36.7321 23.57 36.7321 24.7796 35.9862 25.5255L27.8026 33.709C27.4298 34.0818 26.9409 34.2684 26.4521 34.2684Z" fill="#025162"/>
<path d="M35.9866 22.8242C35.2407 22.0782 34.0312 22.0784 33.2853 22.8242L28.4982 27.6114V33.0137L35.9866 25.5254C36.7324 24.7794 36.7324 23.57 35.9866 22.8242Z" fill="#025162"/>
</svg>
